# Rhino

mtllib boxes_f56.mtl
usemtl diffuse_ControlText
v 15 5 0
v 5 5 0
v 5 5 10
v 15 5 10
v -5 15 0
v 5 15 0
v -5 5 0
v -5 25 0
v 5 25 0
v 15 25 0
v 15 15 0
v 25 25 0
v 25 15 0
v 25 5 0
v 25 -5 0
v 15 -5 0
v 5 -5 0
v 5 15 10
v 15 15 10
v -5 -5 0
v -15 5 0
v -15 5 10
v -5 5 10
v -25 15 0
v -15 15 0
v -25 5 0
v -25 25 0
v -15 25 0
v -15 -5 0
v -15 15 10
v -5 15 10
v -25 -5 0
v -5 -15 0
v -15 -15 0
v -15 -15 10
v -5 -15 10
v -25 -15 0
v -15 -5 10
v -5 -5 10
v 25 -15 0
v 15 -15 0
v 5 -15 0
v 5 -15 10
v 15 -15 10
v 5 -5 10
v 15 -5 10
v 5 -25 0
v -5 -25 0
v 15 -25 0
v 25 -25 0
v -15 -25 0
v -25 -25 0
vn 0.40824830532073975 -0.40824830532073975 0.81649661064147949
vn -0.36514836549758911 -0.18257418274879456 0.91287094354629517
vn -0.40824830532073975 -0.81649661064147949 0.40824830532073975
vn 0.40824830532073975 -0.40824830532073975 0.81649661064147949
vn 0.18257418274879456 0.36514836549758911 0.91287094354629517
vn -0.2357022613286972 0.2357022613286972 0.94280904531478882
vn 0.40824830532073975 -0.40824830532073975 0.81649661064147949
vn 0 0 1
vn 0 0 1
vn 0 0 1
vn 0.18257418274879456 0.36514836549758911 0.91287094354629517
vn 0 0 1
vn 0 0 1
vn 0 0 1
vn 0 0 1
vn 0.18257418274879456 0.36514836549758911 0.91287094354629517
vn -0.2357022613286972 0.2357022613286972 0.94280904531478882
vn -0.57735025882720947 0.57735025882720947 0.57735025882720947
vn 0.81649661064147949 0.40824830532073975 0.40824830532073975
vn 0.18257418274879456 0.36514836549758911 0.91287094354629517
vn -0.36514836549758911 -0.18257418274879456 0.91287094354629517
vn -0.40824830532073975 -0.81649661064147949 0.40824830532073975
vn 0.40824830532073975 -0.40824830532073975 0.81649661064147949
vn 0 0 1
vn -0.2357022613286972 0.2357022613286972 0.94280904531478882
vn 0 0 1
vn 0 0 1
vn 0 0 1
vn -0.2357022613286972 0.2357022613286972 0.94280904531478882
vn -0.57735025882720947 0.57735025882720947 0.57735025882720947
vn 0.81649661064147949 0.40824830532073975 0.40824830532073975
vn 0 0 1
vn 0.40824830532073975 -0.40824830532073975 0.81649661064147949
vn -0.36514836549758911 -0.18257418274879456 0.91287094354629517
vn -0.40824830532073975 -0.81649661064147949 0.40824830532073975
vn 0.40824830532073975 -0.40824830532073975 0.81649661064147949
vn 0 0 1
vn -0.57735025882720947 0.57735025882720947 0.57735025882720947
vn 0.81649661064147949 0.40824830532073975 0.40824830532073975
vn 0 0 1
vn 0.40824830532073975 -0.40824830532073975 0.81649661064147949
vn -0.36514836549758911 -0.18257418274879456 0.91287094354629517
vn -0.40824830532073975 -0.81649661064147949 0.40824830532073975
vn 0.40824830532073975 -0.40824830532073975 0.81649661064147949
vn -0.57735025882720947 0.57735025882720947 0.57735025882720947
vn 0.81649661064147949 0.40824830532073975 0.40824830532073975
vn 0 0 1
vn 0 0 1
vn 0 0 1
vn 0 0 1
vn 0 0 1
vn 0 0 1
f 1//1 3//3 2//2
f 3//3 1//1 4//4
f 5//5 2//2 6//6
f 2//2 5//5 7//7
f 8//8 6//6 9//9
f 6//6 8//8 5//5
f 9//9 11//11 10//10
f 11//11 9//9 6//6
f 10//10 13//13 12//12
f 13//13 10//10 11//11
f 11//11 14//14 13//13
f 14//14 11//11 1//1
f 1//1 15//15 14//14
f 15//15 1//1 16//16
f 2//2 16//16 1//1
f 16//16 2//2 17//17
f 2//2 18//18 6//6
f 18//18 2//2 3//3
f 18//18 11//11 6//6
f 11//11 18//18 19//19
f 19//19 1//1 11//11
f 1//1 19//19 4//4
f 18//18 4//4 19//19
f 4//4 18//18 3//3
f 7//7 17//17 2//2
f 17//17 7//7 20//20
f 7//7 22//22 21//21
f 22//22 7//7 23//23
f 24//24 21//21 25//25
f 21//21 24//24 26//26
f 27//27 25//25 28//28
f 25//25 27//27 24//24
f 28//28 5//5 8//8
f 5//5 28//28 25//25
f 21//21 20//20 7//7
f 20//20 21//21 29//29
f 21//21 30//30 25//25
f 30//30 21//21 22//22
f 30//30 5//5 25//25
f 5//5 30//30 31//31
f 31//31 7//7 5//5
f 7//7 31//31 23//23
f 30//30 23//23 31//31
f 23//23 30//30 22//22
f 26//26 29//29 21//21
f 29//29 26//26 32//32
f 33//33 35//35 34//34
f 35//35 33//33 36//36
f 32//32 34//34 29//29
f 34//34 32//32 37//37
f 34//34 38//38 29//29
f 38//38 34//34 35//35
f 38//38 20//20 29//29
f 20//20 38//38 39//39
f 39//39 33//33 20//20
f 33//33 39//39 36//36
f 38//38 36//36 39//39
f 36//36 38//38 35//35
f 16//16 40//40 15//15
f 40//40 16//16 41//41
f 41//41 43//43 42//42
f 43//43 41//41 44//44
f 20//20 42//42 17//17
f 42//42 20//20 33//33
f 42//42 45//45 17//17
f 45//45 42//42 43//43
f 45//45 16//16 17//17
f 16//16 45//45 46//46
f 46//46 41//41 16//16
f 41//41 46//46 44//44
f 45//45 44//44 46//46
f 44//44 45//45 43//43
f 33//33 47//47 42//42
f 47//47 33//33 48//48
f 42//42 49//49 41//41
f 49//49 42//42 47//47
f 41//41 50//50 40//40
f 50//50 41//41 49//49
f 37//37 51//51 34//34
f 51//51 37//37 52//52
f 34//34 48//48 33//33
f 48//48 34//34 51//51
